<svg xmlns="http://www.w3.org/2000/svg" width="320" height="120" viewBox="0 0 320 120" fill="none">
  <rect width="320" height="120" rx="24" fill="#FFFFFF"/>
  <circle cx="52" cy="60" r="18" fill="#E3B04B"/>
  <path d="M87 39H139V48H98V56H133V65H98V73H139V82H87V39Z" fill="#22364D"/>
  <path d="M148 39H159V82H148V39Z" fill="#22364D"/>
  <path d="M169 49H180V54C183.333 49.8667 188.267 47.8 194.8 47.8C201.6 47.8 206.633 50.1667 209.9 54.9C214.1 50.1667 220.067 47.8 227.8 47.8C233.867 47.8 238.6 49.5 242 52.9C245.467 56.2333 247.2 61.0667 247.2 67.4V82H236.1V68.9C236.1 61.9 232.633 58.4 225.7 58.4C222.233 58.4 219.4 59.4667 217.2 61.6C215 63.7333 213.9 66.7 213.9 70.5V82H202.8V68.9C202.8 61.9 199.333 58.4 192.4 58.4C188.933 58.4 186.1 59.4667 183.9 61.6C181.767 63.7333 180.7 66.7 180.7 70.5V82H169V49Z" fill="#22364D"/>
  <path d="M257.2 49H268.3V82H257.2V49Z" fill="#22364D"/>
  <path d="M262.8 44.4C260.733 44.4 259 43.7667 257.6 42.5C256.267 41.2333 255.6 39.6667 255.6 37.8C255.6 35.9333 256.267 34.3667 257.6 33.1C259 31.8333 260.733 31.2 262.8 31.2C264.867 31.2 266.567 31.8 267.9 33C269.3 34.2 270 35.7 270 37.5C270 39.4333 269.3 41.0667 267.9 42.4C266.567 43.7333 264.867 44.4 262.8 44.4Z" fill="#22364D"/>
</svg>
